<?xml version="1.0" encoding="UTF-8" standalone="no"?>
<!-- Created with Inkscape (http://www.inkscape.org/) -->

<svg
   xmlns:dc="http://purl.org/dc/elements/1.1/"
   xmlns:cc="http://creativecommons.org/ns#"
   xmlns:rdf="http://www.w3.org/1999/02/22-rdf-syntax-ns#"
   xmlns:svg="http://www.w3.org/2000/svg"
   xmlns="http://www.w3.org/2000/svg"
   xmlns:sodipodi="http://sodipodi.sourceforge.net/DTD/sodipodi-0.dtd"
   xmlns:inkscape="http://www.inkscape.org/namespaces/inkscape"
   width="90"
   height="90"
   id="svg3646"
   version="1.1"
   inkscape:version="0.46+devel r22626"
   sodipodi:docname="roomBG.svg"
   inkscape:export-filename="/home/Omega/.gvfs/sftp for ben on iota.csh.rit.edu/home/ben/www/laundryview2/pre/RIT Laundry/Pre/design 5/roomBG.png"
   inkscape:export-xdpi="90"
   inkscape:export-ydpi="90">
  <defs
     id="defs3648">
    <inkscape:perspective
       sodipodi:type="inkscape:persp3d"
       inkscape:vp_x="0 : 526.18109 : 1"
       inkscape:vp_y="0 : 1000 : 0"
       inkscape:vp_z="744.09448 : 526.18109 : 1"
       inkscape:persp3d-origin="372.04724 : 350.78739 : 1"
       id="perspective3654" />
  </defs>
  <sodipodi:namedview
     id="base"
     pagecolor="#ffffff"
     bordercolor="#666666"
     borderopacity="1.0"
     inkscape:pageopacity="0.0"
     inkscape:pageshadow="2"
     inkscape:zoom="2.8"
     inkscape:cx="27.871573"
     inkscape:cy="66.149248"
     inkscape:document-units="px"
     inkscape:current-layer="layer1"
     showgrid="false"
     inkscape:window-width="1280"
     inkscape:window-height="1000"
     inkscape:window-x="0"
     inkscape:window-y="0"
     inkscape:window-maximized="1" />
  <metadata
     id="metadata3651">
    <rdf:RDF>
      <cc:Work
         rdf:about="">
        <dc:format>image/svg+xml</dc:format>
        <dc:type
           rdf:resource="http://purl.org/dc/dcmitype/StillImage" />
        <dc:title></dc:title>
      </cc:Work>
    </rdf:RDF>
  </metadata>
  <g
     inkscape:label="Layer 1"
     inkscape:groupmode="layer"
     id="layer1"
     transform="translate(0,-962.36218)">
    <rect
       style="fill:#ffffe8;fill-opacity:1;fill-rule:evenodd;stroke:none"
       id="rect4192"
       width="101.42857"
       height="104.64286"
       x="-8.9285717"
       y="955.93359" />
    <path
       style="font-size:medium;font-style:normal;font-variant:normal;font-weight:normal;font-stretch:normal;text-indent:0;text-align:start;text-decoration:none;line-height:normal;letter-spacing:normal;word-spacing:normal;text-transform:none;direction:ltr;block-progression:tb;writing-mode:lr-tb;text-anchor:start;opacity:0.5;color:#000000;fill:#001b7c;fill-opacity:1;stroke:none;stroke-width:1;marker:none;visibility:visible;display:inline;overflow:visible;enable-background:accumulate;font-family:Bitstream Vera Sans;-inkscape-font-specification:Bitstream Vera Sans"
       d="M 14.75 -8.46875 L 14.75 29.25 L 0.25 29.25 L 0.25 30.25 L 14.75 30.25 L 14.75 59.25 L 0.25 59.25 L 0.25 60.25 L 14.75 60.25 L 14.75 89.25 L 0.25 89.25 L 0.25 90.25 L 98.46875 90.25 L 98.46875 89.25 L 75.75 89.25 L 75.75 60.25 L 98.46875 60.25 L 98.46875 59.25 L 75.75 59.25 L 75.75 30.25 L 98.46875 30.25 L 98.46875 29.25 L 75.75 29.25 L 75.75 -8.46875 L 74.75 -8.46875 L 74.75 29.25 L 45.75 29.25 L 45.75 -8.46875 L 44.75 -8.46875 L 44.75 29.25 L 15.75 29.25 L 15.75 -8.46875 L 14.75 -8.46875 z M 15.75 30.25 L 44.75 30.25 L 44.75 59.25 L 15.75 59.25 L 15.75 30.25 z M 45.75 30.25 L 74.75 30.25 L 74.75 59.25 L 45.75 59.25 L 45.75 30.25 z M 15.75 60.25 L 44.75 60.25 L 44.75 89.25 L 15.75 89.25 L 15.75 60.25 z M 45.75 60.25 L 74.75 60.25 L 74.75 89.25 L 45.75 89.25 L 45.75 60.25 z "
       transform="translate(0,962.36218)"
       id="path3656" />
    <path
       style="font-size:medium;font-style:normal;font-variant:normal;font-weight:normal;font-stretch:normal;text-indent:0;text-align:start;text-decoration:none;line-height:normal;letter-spacing:normal;word-spacing:normal;text-transform:none;direction:ltr;block-progression:tb;writing-mode:lr-tb;text-anchor:start;opacity:0.5;color:#000000;fill:#b60000;fill-opacity:1;stroke:none;stroke-width:0.5;marker:none;visibility:visible;display:inline;overflow:visible;enable-background:accumulate;font-family:Bitstream Vera Sans;-inkscape-font-specification:Bitstream Vera Sans"
       d="M 0 -8.46875 L 0 89.75 L 0.5 89.75 L 0.5 75 L 30 75 L 30 89.75 L 30.5 89.75 L 30.5 75 L 60 75 L 60 89.75 L 60.5 89.75 L 60.5 75 L 98.46875 75 L 98.46875 74.5 L 60.5 74.5 L 60.5 45 L 98.46875 45 L 98.46875 44.5 L 60.5 44.5 L 60.5 15 L 98.46875 15 L 98.46875 14.5 L 60.5 14.5 L 60.5 -8.46875 L 60 -8.46875 L 60 14.5 L 30.5 14.5 L 30.5 -8.46875 L 30 -8.46875 L 30 14.5 L 0.5 14.5 L 0.5 -8.46875 L 0 -8.46875 z M 0.5 15 L 30 15 L 30 44.5 L 0.5 44.5 L 0.5 15 z M 30.5 15 L 60 15 L 60 44.5 L 30.5 44.5 L 30.5 15 z M 0.5 45 L 30 45 L 30 74.5 L 0.5 74.5 L 0.5 45 z M 30.5 45 L 60 45 L 60 74.5 L 30.5 74.5 L 30.5 45 z "
       transform="translate(0,962.36218)"
       id="path4174" />
  </g>
</svg>
